<svg xmlns="http://www.w3.org/2000/svg" width="20" height="17.578" viewBox="0 0 20 17.578">
  <g id="megaphone" transform="translate(0 -31.003)">
    <path id="Path_164" data-name="Path 164" d="M219.453,31.589V46.823a.586.586,0,0,1-1,.414c-.043-.043-4.259-4.117-8.453-4.48v-7.1c4.2-.363,8.41-4.437,8.453-4.48a.586.586,0,0,1,1,.414Z" transform="translate(-201.797)" fill="#fff"/>
    <path id="Path_165" data-name="Path 165" d="M483.172,191.089A2.345,2.345,0,0,1,482,193.119V189.06A2.345,2.345,0,0,1,483.172,191.089Z" transform="translate(-463.172 -151.883)" fill="#fff"/>
    <path id="Path_166" data-name="Path 166" d="M84.183,361.96a.585.585,0,0,0,.085-.524,8.631,8.631,0,0,1-.337-1.444,6.3,6.3,0,0,0-1.188-.133,8.152,8.152,0,0,0,.193,1.169h-.87a11.926,11.926,0,0,1-.323-1.172H78.6a4.528,4.528,0,0,1-.463-.047,20.025,20.025,0,0,0,1.091,4.366.586.586,0,0,0,.544.369H82.7a.586.586,0,0,0,.5-.887A14.266,14.266,0,0,1,82.5,362.2H83.71A.586.586,0,0,0,84.183,361.96Z" transform="translate(-75.088 -315.963)" fill="#fff"/>
    <path id="Path_167" data-name="Path 167" d="M3.516,158.041H7.031V151.01H3.516a3.516,3.516,0,1,0,0,7.031Z" transform="translate(0 -115.319)" fill="#fff"/>
  </g>
</svg>
